HIERARCHY
ROOT reference
{
  OFFSET 0 0 0
  CHANNELS 6 Xposition Yposition Zposition Zrotation Xrotation Yrotation
  JOINT Hips
  {
    OFFSET 0 97.8064 0
    CHANNELS 6 Xposition Yposition Zposition Zrotation Xrotation Yrotation
    JOINT ToSpine
    {
      OFFSET -2.69724 7.43032 -0.144315
      CHANNELS 6 Xposition Yposition Zposition Zrotation Xrotation Yrotation
      JOINT Spine
      {
        OFFSET -0.0310711 10.7595 1.96963
        CHANNELS 6 Xposition Yposition Zposition Zrotation Xrotation Yrotation
        JOINT Spine1
        {
          OFFSET 13.1342 3.43533 0.764692
          CHANNELS 6 Xposition Yposition Zposition Zrotation Xrotation Yrotation
          JOINT Neck
          {
            OFFSET 29.8703 7.82586 -0.130764
            CHANNELS 6 Xposition Yposition Zposition Zrotation Xrotation Yrotation
            JOINT Head
            {
              OFFSET 9.52751 0.295786 -0.907742
              CHANNELS 6 Xposition Yposition Zposition Zrotation Xrotation Yrotation
              End Site
              {
                OFFSET 16.4037 0.713936 2.7358
              }
            }
          }
          JOINT LeftShoulder
          {
            OFFSET 27.5574 4.95586 2.47156
            CHANNELS 6 Xposition Yposition Zposition Zrotation Xrotation Yrotation
            JOINT LeftArm
            {
              OFFSET 1.20734 -0.998971 20.1238
              CHANNELS 6 Xposition Yposition Zposition Zrotation Xrotation Yrotation
              JOINT LeftForeArm
              {
                OFFSET 26.8049 -0.0536703 -0.155908
                CHANNELS 6 Xposition Yposition Zposition Zrotation Xrotation Yrotation
                JOINT LeftHand
                {
                  OFFSET 26.6817 0 0.320147
                  CHANNELS 6 Xposition Yposition Zposition Zrotation Xrotation Yrotation
                  End Site
                  {
                    OFFSET 18.6119 0 0.382219
                  }
                }
              }
            }
          }
          JOINT RightShoulder
          {
            OFFSET 27.5927 4.71444 -2.65209
            CHANNELS 6 Xposition Yposition Zposition Zrotation Xrotation Yrotation
            JOINT RightArm
            {
              OFFSET 2.83739 -1.17114 -18.7564
              CHANNELS 6 Xposition Yposition Zposition Zrotation Xrotation Yrotation
              JOINT RightForeArm
              {
                OFFSET 28.839 -0.0548439 1.22491
                CHANNELS 6 Xposition Yposition Zposition Zrotation Xrotation Yrotation
                JOINT RightHand
                {
                  OFFSET 26.5114 0 -0.101894
                  CHANNELS 6 Xposition Yposition Zposition Zrotation Xrotation Yrotation
                  End Site
                  {
                    OFFSET 18.2168 0 0
                  }
                }
              }
            }
          }
        }
      }
    }
    JOINT LeftUpLeg
    {
      OFFSET -4.76168 -1.9167 -10.2353
      CHANNELS 6 Xposition Yposition Zposition Zrotation Xrotation Yrotation
      JOINT LeftLeg
      {
        OFFSET 2.55951 -42.0585 -8.02213
        CHANNELS 6 Xposition Yposition Zposition Zrotation Xrotation Yrotation
        JOINT LeftFoot
        {
          OFFSET 3.16357 -42.5282 -3.95426
          CHANNELS 6 Xposition Yposition Zposition Zrotation Xrotation Yrotation
          JOINT LeftToeBase
          {
            OFFSET 0.346054 -6.02161 12.8035
            CHANNELS 6 Xposition Yposition Zposition Zrotation Xrotation Yrotation
            End Site
            {
              OFFSET 0.134235 -1.35082 5.13018
            }
          }
        }
      }
    }
    JOINT RightUpLeg
    {
      OFFSET -4.94151 -1.41743 10.6446
      CHANNELS 6 Xposition Yposition Zposition Zrotation Xrotation Yrotation
      JOINT RightLeg
      {
        OFFSET -2.56294 -42.0364 -7.94377
        CHANNELS 6 Xposition Yposition Zposition Zrotation Xrotation Yrotation
        JOINT RightFoot
        {
          OFFSET -3.0952 -42.555 -4.02241
          CHANNELS 6 Xposition Yposition Zposition Zrotation Xrotation Yrotation
          JOINT RightToeBase
          {
            OFFSET -0.0828122 -6.13587 12.8035
            CHANNELS 6 Xposition Yposition Zposition Zrotation Xrotation Yrotation
            End Site
            {
              OFFSET -0.131328 -1.35082 5.13018
            }
          }
        }
      }
    }
  }
}
MOTION
Frames:	6
Frame Time:	0.0333333
0 0 0 0 0 -0 0 97.8064 0 -9.21641 -69.4912 -99.4257 -2.69724 7.43032 -0.144315 -70.1915 -6.18407e-015 88.8779 -0.0310711 10.7595 1.96963 64.9783 69.5887 25.2871 13.1342 3.43533 0.764692 4.60351 20.8703 1.40837 29.8703 7.82586 -0.130764 -158.867 19.9774 178.863 9.52751 0.295786 -0.907742 -163.551 59.618 -171.956 27.5574 4.95586 2.47156 3.81932 1.88815 -1.18989 1.20734 -0.998971 20.1238 -90 -2.89528e-014 -90 26.8049 -0.0536703 -0.155908 -2.27865e-008 -1.09882e-007 -6.77748e-008 26.6817 -2.84217e-014 0.320147 -4.83776e-016 2.19066e-016 -1.61484e-015 27.5927 4.71444 -2.65209 2.06088 1.77022 3.86625 2.83739 -1.17114 -18.7564 -88.2385 5 88.8941 28.839 -0.0548439 1.22491 1.27948e-006 4.79839e-007 0.0043221 26.5114 0 -0.101894 -1.10621e-012 -4.76474e-009 -0.0296889 -4.76168 -1.9167 -10.2353 -54.5197 2.7833 99.4142 2.55951 -42.0585 -8.02213 -1.21668 19.2657 -6.32176 3.16357 -42.5282 -3.95426 3.72058 -5.93042 -0.842831 0.346054 -6.02161 12.8035 0.207147 -0.61891 0.346907 -4.94151 -1.41743 10.6446 -55.5919 -0.189965 81.4537 -2.56294 -42.0364 -7.94377 1.38344 13.6714 6.74024 -3.0952 -42.555 -4.02241 -6.15803 -1.03764 0.970027 -0.0828122 -6.13587 12.8035 1.52296 -4.82373 -7.85573 
0 0 0 0 0 -0 8.21332 94.5071 -8.54491 69.4031 -35.9112 -11.525 -2.69724 7.43032 -0.144315 -70.1915 -1.19271e-015 88.8779 -0.0310711 10.7595 1.96963 67.7673 70.7309 15.7539 13.1342 3.43533 0.764692 5.82983 20.6678 3.80291 29.8703 7.82586 -0.130764 -123.537 33.1034 158.819 9.52751 0.295786 -0.907742 171.245 75.9616 -147.266 27.5574 4.95586 2.47156 -0.109768 -17.4137 -26.12 1.20734 -0.998971 20.1238 -61.4 31.2447 -139.723 26.8049 -0.0536703 -0.155908 21.8312 -4.07616 -99.2857 26.6817 -2.84217e-014 0.320147 -0.543772 3.33556e-006 1.83584 27.5927 4.71444 -2.65209 -2.02024 7.14581 42.6446 2.83739 -1.17114 -18.7564 -123.784 -6.33302 101.515 28.839 -0.0548439 1.22491 20.8691 -4.21968 78.9349 26.5114 1.42109e-014 -0.101894 2.05949 0.000123967 0.802744 -4.76168 -1.9167 -10.2353 -52.3871 13.3577 99.4055 2.55951 -42.0585 -8.02213 -1.9461 36.2266 -3.15238 3.16357 -42.5282 -3.95426 -0.767781 -10.1109 -0.858995 0.346054 -6.02161 12.8035 2.86944 -8.99686 12.24 -4.94151 -1.41743 10.6446 -43.9715 -12.0757 76.9541 -2.56294 -42.0364 -7.94377 1.89239 29.531 -2.71322 -3.0952 -42.555 -4.02241 -4.26713 0.164838 0.693015 -0.0828122 -6.13587 12.8035 0.880079 -4.84074 -2.5293 
0 0 0 0 0 -0 8.24795 94.5201 -8.52872 69.4437 -35.9441 -11.5502 -2.69724 7.43032 -0.144315 -70.1915 3.97569e-016 88.8779 -0.0310711 10.7595 1.96963 68.5029 70.8206 15.0157 13.1342 3.43533 0.764692 5.45505 20.6601 3.83145 29.8703 7.82586 -0.130764 -122.704 32.8316 157.371 9.52751 0.295786 -0.907742 176.801 76.4968 -151.438 27.5574 4.95586 2.47156 -0.0300823 -16.9835 -25.9499 1.20734 -0.998971 20.1238 -61.3613 31.8544 -139.863 26.8049 -0.0536703 -0.155908 22.7637 -4.2794 -99.3097 26.6817 -4.26326e-014 0.320147 -0.376779 1.32357e-005 1.6468 27.5927 4.71444 -2.65209 -2.00875 7.05242 42.8667 2.83739 -1.17114 -18.7564 -123.608 -6.08091 101.589 28.839 -0.0548439 1.22491 20.7023 -4.17045 78.9652 26.5114 2.84217e-014 -0.101894 2.04037 0.000479687 0.850198 -4.76168 -1.9167 -10.2353 -52.4336 13.32 99.4283 2.55951 -42.0585 -8.02213 -1.92687 36.2481 -2.96328 3.16357 -42.5282 -3.95426 -1.22599 -10.1989 -0.848453 0.346054 -6.02161 12.8035 2.87555 -8.97266 12.0566 -4.94151 -1.41743 10.6446 -43.9904 -12.0589 77.071 -2.56294 -42.0364 -7.94377 1.81109 29.607 -2.97561 -3.0952 -42.555 -4.02241 -4.55274 0.176554 0.730886 -0.0828122 -6.13587 12.8035 0.790733 -5.04624 -1.60152 
0 0 0 0 0 -0 8.21431 94.5562 -8.49338 69.3933 -35.931 -11.6235 -2.69724 7.43032 -0.144315 -70.1915 -2.38542e-015 88.8779 -0.0310711 10.7595 1.96963 67.896 70.8079 15.4235 13.1342 3.43533 0.764692 5.56999 20.632 3.97928 29.8703 7.82586 -0.130764 -122.895 32.86 157.47 9.52751 0.295786 -0.907742 176.43 76.458 -151.225 27.5574 4.95586 2.47156 -0.0120748 -16.8568 -25.9886 1.20734 -0.998971 20.1238 -61.1792 31.3462 -140.038 26.8049 -0.0536703 -0.155908 21.8869 -4.09273 -99.2977 26.6817 -2.84217e-014 0.320147 -0.312349 2.95379e-005 1.63087 27.5927 4.71444 -2.65209 -1.99731 7.0433 42.748 2.83739 -1.17114 -18.7564 -123.682 -6.19242 101.5 28.839 -0.0548439 1.22491 20.8853 -4.21022 78.9666 26.5114 2.84217e-014 -0.101894 2.06702 0.00104287 0.866151 -4.76168 -1.9167 -10.2353 -52.3267 13.3788 99.5824 2.55951 -42.0585 -8.02213 -1.94436 36.3221 -3.06451 3.16357 -42.5282 -3.95426 -1.97982 -10.0669 -0.806246 0.346054 -6.02161 12.8035 3.01702 -9.21198 12.0988 -4.94151 -1.41743 10.6446 -44.0014 -12.0884 76.9833 -2.56294 -42.0364 -7.94377 1.8227 29.5721 -2.7756 -3.0952 -42.555 -4.02241 -5.35029 0.471737 0.825652 -0.0828122 -6.13587 12.8035 0.900392 -5.67615 -1.97229 
0 0 0 0 0 -0 8.22618 94.5548 -8.50355 69.5049 -35.9216 -11.6036 -2.69724 7.43032 -0.144315 -70.1915 -2.38542e-015 88.8779 -0.0310711 10.7595 1.96963 68.5988 70.7839 14.8551 13.1342 3.43533 0.764692 5.44748 20.6302 3.65358 29.8703 7.82586 -0.130764 -122.754 32.704 157.283 9.52751 0.295786 -0.907742 176.661 76.3865 -151.382 27.5574 4.95586 2.47156 -0.0094238 -16.939 -25.7353 1.20734 -0.998971 20.1238 -61.039 31.7694 -140.051 26.8049 -0.0536703 -0.155908 22.0723 -4.13787 -99.3142 26.6817 -2.84217e-014 0.320147 -0.367589 5.20796e-005 1.66393 27.5927 4.71444 -2.65209 -2.02442 7.06955 43.0166 2.83739 -1.17114 -18.7564 -123.665 -6.05678 101.585 28.839 -0.0548439 1.22491 20.4709 -4.0947 79.0265 26.5114 2.84217e-014 -0.101894 2.05208 0.00178925 0.86133 -4.76168 -1.9167 -10.2353 -52.4724 13.2402 99.4573 2.55951 -42.0585 -8.02213 -1.91967 36.2269 -2.91578 3.16357 -42.5282 -3.95426 -2.16615 -10.2875 -0.820405 0.346054 -6.02161 12.8035 2.79209 -8.8527 12.1453 -4.94151 -1.41743 10.6446 -44.0423 -12.2707 76.7648 -2.56294 -42.0364 -7.94377 1.82125 29.7156 -2.7871 -3.0952 -42.555 -4.02241 -5.02046 0.0899934 0.794518 -0.0828122 -6.13587 12.8035 0.740201 -4.86885 -1.35081 
0 0 0 0 0 -0 8.23874 94.5567 -8.47037 69.4242 -35.8103 -11.598 -2.69724 7.43032 -0.144315 -70.1915 3.97569e-015 88.8779 -0.0310711 10.7595 1.96963 67.7892 70.7169 15.6233 13.1342 3.43533 0.764692 5.65598 20.627 3.75145 29.8703 7.82586 -0.130764 -122.801 32.7767 157.271 9.52751 0.295786 -0.907742 176.811 76.4616 -151.541 27.5574 4.95586 2.47156 -0.0481342 -17.0757 -26.0051 1.20734 -0.998971 20.1238 -61.0981 31.6084 -140.048 26.8049 -0.0536703 -0.155908 21.9444 -4.10119 -99.2898 26.6817 -2.84217e-014 0.320147 -0.40729 8.06991e-005 1.69584 27.5927 4.71444 -2.65209 -1.99569 7.0228 42.8093 2.83739 -1.17114 -18.7564 -123.718 -6.15842 101.458 28.839 -0.0548439 1.22491 20.831 -4.16712 79.0443 26.5114 4.26326e-014 -0.101894 2.07031 0.00269455 0.836352 -4.76168 -1.9167 -10.2353 -52.3018 13.2481 99.3556 2.55951 -42.0585 -8.02213 -1.92488 36.3182 -2.89256 3.16357 -42.5282 -3.95426 -2.00109 -10.191 -0.817313 0.346054 -6.02161 12.8035 2.8553 -8.93944 12.0563 -4.94151 -1.41743 10.6446 -43.9956 -12.209 76.8532 -2.56294 -42.0364 -7.94377 1.78545 29.6858 -3.02841 -3.0952 -42.555 -4.02241 -4.59293 0.0935324 0.7386 -0.0828122 -6.13587 12.8035 0.704395 -4.87201 -1.04395 
